<svg id="svg" version="1.1" xmlns="http://www.w3.org/2000/svg" xmlns:xlink="http://www.w3.org/1999/xlink" width="400" height="400" viewBox="0, 0, 400,400"><g id="svgg"><path id="path0" d="M11.429 11.429 C 10.859 11.998,10.800 30.224,10.800 206.029 L 10.800 400.000 12.200 400.000 L 13.599 400.000 13.700 206.900 L 13.800 13.800 206.900 13.700 L 400.000 13.599 400.000 12.200 L 400.000 10.800 206.029 10.800 C 30.224 10.800,11.998 10.859,11.429 11.429 M190.723 81.534 C 192.440 83.022,192.398 79.617,192.399 217.070 L 192.400 349.694 190.847 351.247 C 188.535 353.559,181.200 352.902,181.200 350.383 C 181.200 350.172,180.992 350.000,180.738 350.000 C 180.484 350.000,179.719 349.589,179.038 349.086 C 178.357 348.584,177.350 347.955,176.800 347.689 C 175.493 347.057,174.319 346.305,173.809 345.773 C 173.584 345.537,172.185 344.571,170.700 343.626 C 169.215 342.680,168.000 341.787,168.000 341.641 C 168.000 341.495,167.505 341.160,166.900 340.897 C 166.295 340.633,165.080 339.960,164.200 339.400 C 163.320 338.840,162.195 338.177,161.700 337.927 C 161.205 337.676,160.800 337.329,160.800 337.155 C 160.800 336.981,159.632 336.186,158.204 335.387 C 156.776 334.589,155.505 333.770,155.380 333.568 C 154.960 332.888,154.400 333.192,154.401 334.100 C 154.405 337.138,161.934 346.800,164.297 346.800 C 165.081 346.800,167.393 348.256,171.122 351.098 C 171.629 351.484,172.739 352.182,173.589 352.649 C 174.439 353.116,175.730 353.926,176.459 354.449 C 177.187 354.972,178.094 355.580,178.475 355.800 C 178.855 356.020,180.738 357.280,182.659 358.600 C 184.580 359.920,186.730 361.360,187.437 361.800 C 188.145 362.240,189.995 363.455,191.549 364.500 L 194.374 366.400 197.944 366.400 L 201.513 366.400 203.779 364.134 L 206.045 361.868 205.798 357.034 C 205.663 354.375,205.471 293.931,205.373 222.712 L 205.195 93.225 200.521 88.615 C 197.950 86.080,195.476 83.891,195.023 83.752 C 194.570 83.613,193.366 82.892,192.346 82.149 C 190.372 80.712,189.313 80.310,190.723 81.534 M267.500 83.514 C 265.135 83.576,263.200 83.769,263.200 83.942 C 263.200 84.116,261.490 84.492,259.400 84.779 C 257.310 85.066,255.600 85.423,255.600 85.573 C 255.600 85.722,254.242 86.072,252.582 86.351 C 250.921 86.630,249.076 87.099,248.482 87.392 C 247.050 88.099,245.723 88.638,243.900 89.254 C 243.075 89.533,242.400 89.885,242.400 90.037 C 242.400 90.189,241.905 90.429,241.300 90.571 C 239.763 90.931,233.600 94.042,233.600 94.458 C 233.600 94.646,233.344 94.800,233.031 94.800 C 232.718 94.800,231.927 95.250,231.273 95.800 C 230.619 96.350,229.885 96.800,229.642 96.800 C 229.328 96.800,229.198 100.604,229.192 109.900 C 229.187 117.105,229.167 127.680,229.146 133.400 C 228.845 217.355,229.251 314.754,229.900 314.174 C 231.288 312.932,234.361 310.800,234.762 310.800 C 234.987 310.800,235.365 310.440,235.600 310.000 C 235.835 309.560,236.210 309.200,236.431 309.200 C 236.812 309.200,240.787 306.380,241.929 305.300 C 242.219 305.025,242.628 304.800,242.838 304.800 C 243.077 304.800,243.211 274.757,243.199 223.700 C 243.188 179.095,243.184 135.165,243.190 126.077 L 243.200 109.555 244.482 108.384 C 245.187 107.740,246.402 106.922,247.182 106.565 C 249.846 105.346,254.999 102.731,255.416 102.386 C 255.644 102.197,256.544 101.868,257.416 101.656 C 258.287 101.444,259.540 101.084,260.200 100.857 C 260.860 100.629,262.480 100.222,263.800 99.951 C 265.120 99.680,266.555 99.220,266.989 98.929 C 267.423 98.638,268.683 98.394,269.789 98.387 C 270.919 98.380,272.140 98.117,272.576 97.787 C 273.721 96.921,292.279 96.921,293.424 97.787 C 293.861 98.119,295.082 98.380,296.224 98.387 C 297.365 98.394,298.586 98.656,299.024 98.987 C 299.451 99.310,300.404 99.580,301.142 99.587 C 301.880 99.594,303.320 100.019,304.342 100.531 C 305.364 101.044,306.780 101.578,307.488 101.719 C 308.197 101.860,309.457 102.397,310.288 102.912 C 311.120 103.428,312.430 104.098,313.200 104.402 C 313.970 104.706,314.690 105.065,314.800 105.200 C 314.910 105.335,315.630 105.691,316.400 105.991 C 317.170 106.291,318.634 107.136,319.654 107.868 C 320.673 108.601,321.626 109.200,321.770 109.200 C 322.577 109.200,325.646 112.005,326.147 113.200 C 326.749 114.638,328.066 116.000,328.853 116.000 C 329.098 116.000,330.773 117.440,332.576 119.200 C 334.379 120.960,336.003 122.400,336.184 122.400 C 336.365 122.400,337.029 122.940,337.660 123.600 C 338.970 124.971,339.289 125.099,338.908 124.100 C 338.606 123.311,338.438 123.076,337.002 121.431 C 336.440 120.788,335.871 119.798,335.737 119.231 C 335.602 118.664,335.268 117.930,334.994 117.600 C 334.719 117.270,334.382 116.628,334.243 116.173 C 334.105 115.718,332.509 114.012,330.696 112.382 C 328.883 110.752,327.256 109.189,327.080 108.909 C 326.904 108.629,326.499 108.400,326.180 108.400 C 325.861 108.400,325.600 108.209,325.600 107.976 C 325.600 107.743,325.444 107.649,325.253 107.767 C 324.813 108.039,323.380 106.487,323.740 106.127 C 323.888 105.979,324.374 106.250,324.820 106.729 C 325.266 107.208,325.939 107.594,326.316 107.587 C 326.954 107.575,326.953 107.539,326.300 107.043 C 325.915 106.751,325.600 106.319,325.600 106.083 C 325.600 105.604,324.083 104.989,323.283 105.143 C 322.998 105.198,322.283 104.693,321.694 104.021 C 321.104 103.350,320.386 102.800,320.098 102.800 C 319.810 102.800,319.478 102.548,319.360 102.239 C 319.241 101.931,318.796 101.588,318.370 101.476 C 317.845 101.339,317.629 100.980,317.698 100.360 C 317.772 99.700,317.434 99.218,316.481 98.623 C 315.755 98.170,314.433 97.215,313.543 96.500 C 312.653 95.785,311.680 95.200,311.382 95.200 C 311.084 95.200,310.696 94.948,310.520 94.641 C 310.344 94.334,309.120 93.517,307.800 92.827 C 306.480 92.138,305.130 91.412,304.800 91.215 C 303.302 90.320,298.082 88.010,297.000 87.763 C 296.340 87.613,295.620 87.360,295.400 87.202 C 295.180 87.044,293.850 86.695,292.445 86.426 C 291.040 86.158,289.600 85.791,289.245 85.611 C 288.494 85.231,283.299 84.400,281.673 84.400 C 281.061 84.400,280.389 84.235,280.180 84.034 C 279.734 83.604,273.602 83.352,267.500 83.514 M341.774 86.758 C 341.923 86.999,342.416 87.395,342.871 87.638 C 343.462 87.954,343.620 87.956,343.426 87.642 C 343.277 87.401,342.784 87.005,342.329 86.762 C 341.738 86.446,341.580 86.444,341.774 86.758 M77.976 88.777 C 79.973 90.040,77.376 99.211,74.232 101.998 C 70.243 105.534,68.399 107.351,68.383 107.758 C 68.374 108.001,67.834 108.642,67.183 109.181 C 66.532 109.721,66.000 110.339,66.000 110.555 C 66.000 110.772,65.280 111.802,64.400 112.846 C 63.520 113.890,62.800 114.927,62.800 115.152 C 62.800 115.376,62.575 115.704,62.300 115.880 C 61.803 116.198,61.160 117.197,60.097 119.300 C 59.791 119.905,59.375 120.400,59.171 120.400 C 58.967 120.400,58.800 120.622,58.800 120.894 C 58.800 121.166,58.332 122.381,57.760 123.594 C 57.187 124.807,56.468 126.340,56.161 127.000 C 55.854 127.660,55.490 128.785,55.351 129.500 C 55.213 130.215,54.956 130.800,54.779 130.800 C 54.603 130.800,54.240 132.150,53.974 133.800 C 53.708 135.450,53.355 136.800,53.190 136.800 C 53.025 136.800,52.660 138.608,52.378 140.818 C 52.097 143.028,51.716 144.928,51.533 145.041 C 51.350 145.155,51.200 146.432,51.200 147.880 C 51.200 150.843,51.229 150.881,54.800 152.686 C 56.010 153.297,57.238 154.023,57.528 154.298 C 57.818 154.574,58.493 154.909,59.028 155.043 C 59.563 155.177,60.000 155.403,60.000 155.546 C 60.000 155.688,60.585 156.041,61.300 156.331 C 62.015 156.620,63.078 157.114,63.662 157.428 C 65.140 158.224,65.200 158.188,65.202 156.500 C 65.204 155.675,65.474 154.484,65.802 153.854 C 66.131 153.224,66.400 151.864,66.400 150.831 C 66.400 149.798,66.664 148.604,66.987 148.176 C 67.337 147.714,67.580 146.491,67.587 145.149 C 67.596 143.649,67.800 142.732,68.200 142.400 C 68.530 142.126,68.800 141.395,68.800 140.775 C 68.800 140.155,68.980 139.536,69.200 139.400 C 69.420 139.264,69.600 138.794,69.600 138.354 C 69.600 137.405,71.027 134.154,71.599 133.801 C 71.820 133.664,72.000 133.240,72.000 132.858 C 72.000 132.475,72.720 131.459,73.600 130.600 C 74.480 129.741,75.200 128.736,75.200 128.368 C 75.200 127.999,75.470 127.474,75.800 127.200 C 76.130 126.926,76.400 126.440,76.400 126.120 C 76.400 125.799,77.120 124.824,78.000 123.953 C 78.880 123.082,79.600 122.149,79.600 121.879 C 79.600 121.610,82.120 118.874,85.200 115.800 C 90.072 110.937,90.800 110.044,90.800 108.929 C 90.800 108.224,90.980 107.536,91.200 107.400 C 92.417 106.648,91.383 97.855,89.975 96.984 C 89.769 96.857,89.600 96.443,89.600 96.065 C 89.600 94.195,83.734 89.603,81.340 89.598 C 80.713 89.596,79.684 89.326,79.054 88.998 C 77.804 88.345,77.051 88.191,77.976 88.777 M155.600 89.576 C 155.600 90.038,156.050 91.129,156.600 92.000 C 157.150 92.871,157.600 93.836,157.600 94.143 C 157.600 94.451,157.870 94.926,158.200 95.200 C 158.530 95.474,158.800 96.001,158.800 96.371 C 158.800 96.740,159.385 97.593,160.100 98.266 C 161.183 99.285,162.640 100.096,168.100 102.722 C 168.265 102.802,168.400 101.176,168.400 99.109 C 168.400 95.338,167.546 93.600,165.694 93.600 C 165.508 93.600,164.735 93.137,163.978 92.572 C 163.220 92.007,162.060 91.280,161.400 90.958 C 160.740 90.635,159.750 90.126,159.200 89.827 C 157.215 88.746,155.600 88.633,155.600 89.576 M344.800 90.013 C 344.800 90.239,345.063 90.526,345.385 90.650 C 345.706 90.773,346.085 91.237,346.225 91.680 C 346.366 92.123,347.678 93.682,349.141 95.143 C 350.603 96.604,352.070 98.340,352.399 99.000 C 352.729 99.660,353.204 100.333,353.455 100.495 C 353.706 100.657,354.022 101.232,354.157 101.772 C 354.293 102.313,354.943 103.345,355.602 104.067 C 356.261 104.788,356.800 105.566,356.800 105.796 C 356.800 106.026,357.250 106.877,357.800 107.686 C 358.350 108.495,358.800 109.437,358.800 109.779 C 358.800 110.120,358.967 110.400,359.172 110.400 C 359.377 110.400,359.940 111.255,360.425 112.300 C 360.910 113.345,361.732 115.103,362.253 116.206 C 362.774 117.309,363.200 118.434,363.200 118.706 C 363.200 118.978,363.360 119.200,363.555 119.200 C 363.751 119.200,364.034 119.875,364.185 120.700 C 364.336 121.525,364.703 122.579,365.000 123.042 C 365.298 123.504,365.668 124.584,365.823 125.442 C 365.978 126.299,366.244 127.180,366.415 127.400 C 366.585 127.620,366.948 128.970,367.220 130.400 C 367.492 131.830,367.850 133.180,368.015 133.400 C 368.180 133.620,368.546 136.140,368.828 139.000 C 369.110 141.860,369.496 144.305,369.686 144.433 C 370.239 144.807,370.214 166.929,369.660 167.113 C 369.397 167.201,369.200 168.103,369.200 169.219 C 369.200 171.944,368.405 179.235,368.003 180.200 C 367.819 180.640,367.447 182.440,367.176 184.200 C 366.905 185.960,366.545 187.580,366.377 187.800 C 366.209 188.020,365.942 188.920,365.784 189.800 C 365.625 190.680,365.359 191.580,365.192 191.800 C 365.026 192.020,364.660 193.235,364.381 194.500 C 364.101 195.765,363.750 196.800,363.600 196.800 C 363.450 196.800,363.106 197.835,362.835 199.100 C 362.342 201.408,361.687 203.223,360.589 205.332 C 360.265 205.955,360.000 206.641,360.000 206.857 C 360.000 207.073,359.532 208.273,358.961 209.525 C 357.055 213.698,356.800 214.318,356.800 214.781 C 356.800 215.361,355.103 218.554,354.700 218.733 C 354.535 218.807,354.400 219.097,354.400 219.379 C 354.400 219.661,354.033 220.358,353.585 220.928 C 352.895 221.805,352.848 222.087,353.275 222.772 C 353.674 223.410,353.677 223.683,353.290 224.070 C 353.020 224.340,352.800 224.853,352.800 225.210 C 352.800 225.927,351.396 227.341,350.300 227.728 C 349.915 227.864,349.600 228.173,349.600 228.414 C 349.600 228.656,349.150 229.443,348.600 230.164 C 348.050 230.886,347.600 231.684,347.600 231.938 C 347.600 232.192,347.434 232.400,347.232 232.400 C 347.029 232.400,346.745 232.940,346.600 233.600 C 346.455 234.260,346.171 234.800,345.968 234.800 C 345.766 234.800,345.600 234.999,345.600 235.242 C 345.600 235.485,345.150 236.219,344.600 236.873 C 344.050 237.527,343.600 238.318,343.600 238.631 C 343.600 238.944,343.438 239.200,343.240 239.200 C 342.826 239.200,341.200 241.823,341.200 242.490 C 341.200 242.734,340.756 243.398,340.214 243.967 C 338.404 245.864,335.200 249.912,335.200 250.302 C 335.200 250.514,334.480 251.505,333.600 252.505 C 332.720 253.505,332.000 254.456,332.000 254.619 C 332.000 254.782,331.633 255.295,331.185 255.758 C 330.486 256.480,327.025 260.499,321.848 266.600 C 321.101 267.480,319.015 269.820,317.212 271.800 C 315.409 273.780,313.679 275.685,313.367 276.034 C 313.055 276.382,312.800 276.807,312.800 276.977 C 312.800 277.467,311.049 279.185,310.543 279.193 C 310.291 279.197,308.131 281.114,305.743 283.454 C 301.934 287.184,294.275 294.518,290.534 298.016 C 289.838 298.667,289.147 299.200,288.998 299.200 C 288.850 299.200,286.809 300.911,284.464 303.002 C 279.065 307.817,278.849 308.000,278.564 308.000 C 278.434 308.000,277.312 308.855,276.070 309.900 C 274.829 310.945,273.572 311.980,273.278 312.200 C 272.983 312.420,272.435 312.870,272.058 313.200 C 270.871 314.241,268.463 316.000,268.226 316.000 C 268.101 316.000,267.414 316.593,266.699 317.318 C 265.512 318.522,263.018 320.401,261.281 321.400 C 260.898 321.620,260.229 322.123,259.793 322.517 C 258.266 323.898,254.820 326.400,254.445 326.400 C 254.237 326.400,254.007 326.535,253.933 326.700 C 253.728 327.161,250.903 329.200,250.469 329.200 C 250.258 329.200,249.988 329.455,249.868 329.766 C 249.667 330.290,249.037 330.711,246.400 332.080 C 245.850 332.366,244.911 333.095,244.313 333.700 C 243.716 334.305,243.112 334.800,242.971 334.800 C 242.830 334.800,241.978 335.385,241.077 336.100 C 239.374 337.451,238.682 337.899,236.500 339.058 C 235.785 339.437,235.200 339.895,235.200 340.074 C 235.200 340.253,234.992 340.400,234.738 340.400 C 234.484 340.400,233.686 340.850,232.964 341.400 C 232.243 341.950,231.456 342.400,231.214 342.400 C 230.973 342.400,230.673 342.666,230.548 342.990 C 230.424 343.315,229.845 343.822,229.261 344.117 C 227.823 344.843,226.244 345.756,226.000 346.001 C 225.890 346.112,224.990 346.741,224.000 347.400 C 223.010 348.059,222.110 348.692,222.000 348.807 C 221.890 348.922,221.350 349.244,220.800 349.522 C 214.246 352.836,212.150 355.110,213.973 356.933 C 214.512 357.472,214.530 359.073,214.000 359.400 C 212.784 360.151,214.229 364.520,216.372 366.573 C 217.626 367.775,224.279 368.035,225.659 366.935 C 225.956 366.698,226.875 366.383,227.700 366.234 C 228.525 366.085,229.200 365.792,229.200 365.582 C 229.200 365.372,229.397 365.200,229.638 365.200 C 229.879 365.200,230.635 364.803,231.317 364.317 C 231.999 363.831,233.107 363.147,233.779 362.798 C 235.949 361.667,236.946 361.031,239.264 359.300 C 240.515 358.365,241.671 357.600,241.832 357.600 C 241.993 357.600,242.714 357.150,243.436 356.600 C 244.157 356.050,244.856 355.600,244.990 355.600 C 245.125 355.600,246.188 354.880,247.354 354.000 C 248.519 353.120,249.605 352.400,249.767 352.400 C 249.928 352.400,251.113 351.590,252.400 350.600 C 253.687 349.610,254.856 348.800,254.998 348.800 C 255.140 348.800,256.110 348.080,257.154 347.200 C 258.198 346.320,259.183 345.600,259.343 345.600 C 259.577 345.600,262.545 343.502,264.600 341.885 C 266.023 340.764,270.029 338.000,270.230 338.000 C 270.363 338.000,271.421 337.190,272.579 336.200 C 273.738 335.210,274.860 334.400,275.073 334.400 C 275.286 334.400,275.897 333.928,276.430 333.351 C 276.964 332.774,278.390 331.572,279.600 330.680 C 280.810 329.788,282.161 328.685,282.603 328.229 C 283.045 327.773,284.125 326.922,285.003 326.337 C 285.881 325.753,287.486 324.448,288.569 323.437 C 289.652 322.427,290.704 321.600,290.906 321.600 C 291.109 321.600,292.368 320.610,293.705 319.400 C 295.042 318.190,296.306 317.200,296.513 317.200 C 296.720 317.200,298.084 316.052,299.545 314.649 C 301.005 313.246,303.277 311.229,304.594 310.167 C 305.911 309.106,310.185 305.034,314.092 301.119 C 317.999 297.203,321.299 294.000,321.425 294.000 C 322.310 294.000,326.800 289.783,326.800 288.952 C 326.800 288.693,328.330 286.910,330.200 284.988 C 332.070 283.067,333.600 281.272,333.600 280.999 C 333.600 280.727,334.870 279.265,336.423 277.752 C 337.976 276.238,339.582 274.370,339.992 273.600 C 340.402 272.830,341.832 271.126,343.169 269.813 C 344.506 268.499,345.600 267.173,345.600 266.865 C 345.600 266.558,346.320 265.586,347.200 264.706 C 348.080 263.826,348.800 262.863,348.800 262.567 C 348.800 262.270,349.357 261.458,350.038 260.761 C 350.719 260.065,351.589 258.979,351.973 258.348 C 352.357 257.717,353.330 256.488,354.135 255.618 C 354.941 254.747,355.600 253.788,355.600 253.487 C 355.600 253.186,356.050 252.517,356.600 252.000 C 357.150 251.483,357.600 250.846,357.600 250.584 C 357.600 250.323,358.137 249.499,358.794 248.754 C 359.450 248.009,359.990 247.171,359.994 246.892 C 359.997 246.613,360.450 245.671,361.000 244.800 C 361.550 243.929,362.000 242.981,362.000 242.693 C 362.000 242.405,362.910 241.277,364.022 240.185 C 366.234 238.013,367.600 235.422,367.600 233.398 C 367.600 232.683,367.870 231.874,368.200 231.600 C 368.530 231.326,368.800 230.913,368.800 230.683 C 368.800 230.074,371.195 225.250,371.631 224.981 C 371.834 224.855,372.000 224.155,372.000 223.425 C 372.000 222.695,372.270 221.874,372.600 221.600 C 372.930 221.326,373.200 220.851,373.200 220.543 C 373.200 220.236,373.650 219.271,374.200 218.400 C 374.750 217.529,375.200 216.294,375.200 215.657 C 375.200 215.019,375.470 214.274,375.800 214.000 C 376.130 213.726,376.400 213.006,376.400 212.400 C 376.400 211.794,376.670 211.074,377.000 210.800 C 377.330 210.526,377.600 209.705,377.600 208.975 C 377.600 208.245,377.780 207.536,378.000 207.400 C 378.220 207.264,378.400 206.748,378.400 206.253 C 378.400 205.758,378.664 205.004,378.987 204.576 C 379.310 204.149,379.580 203.069,379.587 202.176 C 379.594 201.284,379.864 200.204,380.187 199.776 C 380.510 199.349,380.780 198.257,380.787 197.349 C 380.795 196.383,381.049 195.491,381.400 195.200 C 381.833 194.840,382.000 193.889,382.000 191.775 C 382.000 190.165,382.180 188.736,382.400 188.600 C 382.624 188.462,382.801 186.560,382.802 184.276 C 382.804 181.442,382.987 179.851,383.402 179.054 C 384.276 177.379,384.263 156.181,383.387 155.024 C 382.981 154.487,382.800 153.229,382.800 150.947 C 382.800 149.132,382.620 147.536,382.400 147.400 C 382.180 147.264,382.000 146.105,382.000 144.825 C 382.000 143.245,381.808 142.338,381.400 142.000 C 381.039 141.700,380.800 140.825,380.800 139.800 C 380.800 138.832,380.559 137.898,380.242 137.635 C 379.935 137.380,379.598 136.593,379.492 135.886 C 379.299 134.591,378.588 132.391,377.946 131.105 C 377.756 130.723,377.600 130.207,377.600 129.958 C 377.600 129.709,377.060 128.891,376.400 128.139 C 375.511 127.127,375.200 126.373,375.200 125.233 C 375.200 123.971,374.912 123.406,373.600 122.094 C 372.720 121.214,372.000 120.245,372.000 119.940 C 372.000 119.635,371.550 118.723,371.000 117.914 C 370.450 117.105,370.000 116.291,370.000 116.106 C 370.000 115.921,369.467 115.147,368.816 114.385 C 368.165 113.623,367.625 112.754,367.616 112.453 C 367.607 112.152,367.060 111.291,366.400 110.539 C 365.740 109.787,365.200 108.950,365.200 108.678 C 365.200 108.406,363.490 106.481,361.400 104.400 C 359.310 102.319,357.600 100.425,357.600 100.193 C 357.600 99.378,351.443 94.000,350.510 94.000 C 350.321 94.000,349.094 93.015,347.783 91.812 C 345.381 89.607,344.800 89.256,344.800 90.013 M55.302 182.334 C 55.517 183.360,55.824 184.380,55.984 184.600 C 56.145 184.820,56.512 185.900,56.800 187.000 C 57.088 188.100,57.455 189.180,57.616 189.400 C 57.776 189.620,58.039 190.430,58.200 191.200 C 58.361 191.970,58.714 193.050,58.985 193.600 C 60.029 195.717,60.762 197.461,61.254 199.000 C 61.535 199.880,61.998 200.884,62.283 201.231 C 62.567 201.579,62.806 202.029,62.813 202.231 C 62.819 202.434,63.268 203.500,63.809 204.600 C 64.350 205.700,64.794 206.825,64.796 207.100 C 64.798 207.375,64.941 207.600,65.112 207.600 C 65.284 207.600,65.637 208.095,65.897 208.700 C 66.156 209.305,67.184 211.240,68.180 213.000 C 69.177 214.760,70.105 216.515,70.243 216.900 C 70.381 217.285,70.650 217.600,70.841 217.600 C 71.033 217.600,71.468 218.185,71.809 218.900 C 73.023 221.447,73.736 222.618,74.860 223.914 C 75.487 224.637,76.000 225.485,76.000 225.800 C 76.000 226.114,76.360 226.565,76.800 226.800 C 77.240 227.035,77.600 227.409,77.600 227.630 C 77.600 228.147,79.247 230.502,79.900 230.920 C 80.175 231.096,80.400 231.506,80.400 231.832 C 80.400 232.158,80.715 232.540,81.100 232.681 C 82.183 233.076,83.334 234.418,84.375 236.500 C 84.898 237.545,85.477 238.400,85.663 238.400 C 85.848 238.400,86.000 238.599,86.000 238.841 C 86.000 239.084,87.082 240.569,88.404 242.141 C 89.726 243.714,91.301 245.606,91.904 246.346 C 94.208 249.174,98.958 254.225,99.833 254.776 C 104.252 257.564,103.503 273.200,98.950 273.200 C 98.669 273.200,98.296 273.429,98.120 273.710 C 97.089 275.351,86.800 276.735,86.800 275.232 C 86.800 275.029,86.261 274.745,85.602 274.601 C 84.944 274.456,84.269 274.123,84.102 273.860 C 83.936 273.598,83.305 273.166,82.700 272.900 C 82.095 272.635,81.600 272.151,81.600 271.825 C 81.600 271.500,80.610 270.286,79.400 269.129 C 78.190 267.971,77.200 266.794,77.200 266.512 C 77.200 266.231,76.930 266.000,76.600 266.000 C 76.270 266.000,76.000 265.817,76.000 265.593 C 76.000 265.369,75.370 264.574,74.600 263.826 C 73.830 263.079,73.200 262.309,73.200 262.117 C 73.200 261.924,72.480 261.105,71.600 260.296 C 70.720 259.487,70.000 258.648,70.000 258.432 C 70.000 258.216,69.743 257.896,69.428 257.720 C 69.113 257.544,68.575 256.860,68.231 256.200 C 67.886 255.539,67.604 255.288,67.602 255.642 C 67.601 255.994,68.050 256.769,68.600 257.362 C 69.150 257.956,69.600 258.674,69.600 258.959 C 69.600 259.244,70.590 260.483,71.800 261.712 C 73.010 262.942,74.000 264.191,74.000 264.488 C 74.000 264.784,74.990 266.005,76.200 267.200 C 77.410 268.395,78.400 269.654,78.400 269.997 C 78.400 270.340,79.660 271.872,81.200 273.400 C 82.740 274.928,84.000 276.406,84.000 276.685 C 84.000 277.346,92.567 285.941,94.609 287.329 C 96.145 288.372,96.341 288.400,102.157 288.400 L 108.127 288.400 110.364 286.731 C 112.895 284.843,114.800 282.887,114.800 282.177 C 114.800 281.913,115.070 281.474,115.400 281.200 C 115.884 280.799,116.000 279.558,116.000 274.800 C 116.000 270.042,115.884 268.801,115.400 268.400 C 115.070 268.126,114.800 267.412,114.800 266.814 C 114.800 266.012,114.195 265.145,112.500 263.517 C 111.235 262.302,109.561 260.609,108.779 259.754 C 107.998 258.899,107.052 257.930,106.678 257.600 C 104.971 256.096,101.600 252.263,101.600 251.827 C 101.600 251.561,100.610 250.313,99.400 249.053 C 97.831 247.420,97.200 246.451,97.200 245.672 C 97.200 244.840,96.441 243.826,94.000 241.400 C 92.240 239.650,90.797 238.035,90.794 237.809 C 90.790 237.584,90.250 236.791,89.594 236.046 C 88.937 235.301,88.400 234.465,88.400 234.188 C 88.400 233.911,87.953 233.260,87.407 232.742 C 86.861 232.224,86.411 231.507,86.407 231.149 C 86.403 230.791,86.130 230.274,85.800 230.000 C 85.470 229.726,85.200 229.186,85.200 228.800 C 85.200 228.414,84.906 227.854,84.546 227.555 C 83.670 226.828,82.000 224.151,82.000 223.475 C 82.000 223.177,81.465 222.408,80.811 221.767 C 80.157 221.125,79.617 220.407,79.611 220.170 C 79.605 219.934,78.880 218.349,78.000 216.649 C 77.120 214.948,76.400 213.139,76.400 212.627 C 76.400 212.116,76.130 211.474,75.800 211.200 C 75.470 210.926,75.200 210.210,75.200 209.609 C 75.200 208.998,74.759 208.041,74.200 207.438 C 73.624 206.816,73.200 205.880,73.200 205.228 C 73.200 204.607,72.930 203.874,72.600 203.600 C 72.270 203.326,72.000 202.786,72.000 202.400 C 72.000 202.014,71.730 201.474,71.400 201.200 C 71.070 200.926,70.800 200.268,70.800 199.737 C 70.800 199.206,70.503 198.319,70.141 197.765 C 69.044 196.092,69.978 195.874,72.541 197.203 C 73.810 197.861,75.157 198.400,75.535 198.400 C 75.913 198.400,76.577 198.635,77.011 198.921 C 77.445 199.208,78.790 199.682,80.000 199.974 C 81.210 200.267,82.686 200.752,83.280 201.053 C 83.874 201.354,84.684 201.601,85.080 201.602 C 85.476 201.604,86.316 201.874,86.946 202.202 C 87.576 202.531,88.391 202.800,88.757 202.800 C 89.123 202.800,89.777 203.044,90.211 203.343 C 90.645 203.642,91.900 204.014,93.000 204.169 C 98.224 204.908,99.059 205.072,99.874 205.520 C 100.354 205.784,101.895 206.000,103.297 206.000 C 104.920 206.000,106.129 206.214,106.624 206.587 C 107.051 206.910,108.041 207.180,108.824 207.187 C 109.606 207.194,110.596 207.464,111.024 207.787 C 112.183 208.664,143.817 208.664,144.976 207.787 C 145.521 207.375,146.792 207.200,149.231 207.200 C 151.538 207.200,153.094 206.999,153.854 206.602 C 154.485 206.273,156.046 206.004,157.326 206.002 C 158.606 206.001,160.046 205.787,160.526 205.526 C 161.445 205.028,163.847 204.485,166.700 204.131 L 168.400 203.919 168.400 195.152 L 168.400 186.385 167.300 186.654 C 166.695 186.802,166.110 187.053,166.000 187.211 C 165.890 187.370,165.215 187.626,164.500 187.782 C 163.785 187.937,163.200 188.188,163.200 188.341 C 163.200 188.663,159.396 189.600,158.088 189.600 C 157.600 189.600,157.200 189.764,157.200 189.964 C 157.200 190.164,155.895 190.538,154.300 190.796 C 152.705 191.054,151.083 191.434,150.695 191.639 C 150.307 191.845,148.867 192.125,147.495 192.262 C 146.123 192.398,144.803 192.664,144.562 192.853 C 144.321 193.041,141.801 193.395,138.962 193.639 C 136.123 193.882,133.369 194.288,132.841 194.540 C 131.479 195.191,101.950 195.187,101.162 194.536 C 100.853 194.280,99.070 193.852,97.200 193.585 C 95.330 193.318,93.620 192.966,93.400 192.804 C 93.180 192.642,91.959 192.392,90.686 192.249 C 89.414 192.107,88.064 191.830,87.686 191.635 C 87.309 191.440,85.560 191.064,83.800 190.801 C 82.040 190.537,80.420 190.182,80.200 190.013 C 79.980 189.843,78.854 189.483,77.699 189.212 C 76.543 188.941,75.507 188.573,75.397 188.395 C 75.286 188.216,74.478 187.948,73.600 187.800 C 72.722 187.652,71.915 187.386,71.807 187.211 C 71.698 187.035,70.932 186.764,70.104 186.609 C 69.277 186.454,67.874 185.997,66.986 185.593 C 66.098 185.189,64.883 184.736,64.286 184.586 C 63.689 184.436,63.200 184.153,63.200 183.957 C 63.200 183.760,62.907 183.600,62.549 183.600 C 62.191 183.600,60.616 182.991,59.049 182.247 C 54.665 180.166,54.847 180.162,55.302 182.334 " stroke="none" fill="#040404" fill-rule="evenodd"></path><path id="path1" d="M260.700 59.867 C 258.995 59.959,257.600 60.183,257.600 60.365 C 257.600 60.548,256.160 60.822,254.400 60.976 C 252.640 61.129,251.200 61.401,251.200 61.579 C 251.200 61.757,249.760 62.126,248.000 62.400 C 246.240 62.674,244.800 63.039,244.800 63.211 C 244.800 63.384,243.924 63.645,242.852 63.793 C 241.781 63.940,240.423 64.310,239.835 64.615 C 239.247 64.920,238.144 65.287,237.383 65.430 C 236.622 65.572,236.000 65.832,236.000 66.008 C 236.000 66.183,235.100 66.557,234.000 66.839 C 232.900 67.121,232.000 67.490,232.000 67.660 C 232.000 67.829,231.280 68.184,230.400 68.447 C 229.520 68.711,228.800 69.058,228.800 69.219 C 228.800 69.379,228.187 69.626,227.439 69.766 C 226.690 69.907,225.982 70.270,225.866 70.573 C 225.749 70.876,225.102 71.246,224.427 71.394 C 223.752 71.542,223.200 71.807,223.200 71.983 C 223.200 72.159,222.660 72.527,222.000 72.800 C 221.340 73.073,220.800 73.441,220.800 73.617 C 220.800 73.793,220.260 74.055,219.600 74.200 C 218.940 74.345,218.400 74.634,218.400 74.842 C 218.400 75.050,217.950 75.391,217.400 75.600 C 216.850 75.809,216.400 76.165,216.400 76.390 C 216.400 76.616,216.130 76.800,215.800 76.800 C 215.470 76.800,214.880 77.115,214.488 77.500 C 214.096 77.885,213.285 78.456,212.686 78.769 C 212.086 79.081,211.102 79.841,210.498 80.458 C 209.894 81.074,209.251 81.583,209.069 81.589 C 208.886 81.595,207.986 82.358,207.069 83.285 L 205.400 84.971 205.303 215.948 C 205.236 306.258,205.335 347.081,205.622 347.427 C 205.911 347.775,205.910 348.008,205.619 348.188 C 204.967 348.591,205.180 351.269,205.971 352.600 C 206.914 354.189,212.448 354.328,213.606 352.791 C 214.248 351.940,217.217 350.400,218.215 350.400 C 218.505 350.400,218.981 350.173,219.271 349.895 C 219.562 349.618,220.250 349.159,220.800 348.876 C 223.303 347.587,224.000 347.130,224.000 346.778 C 224.000 346.570,224.192 346.400,224.427 346.400 C 224.661 346.400,225.443 345.950,226.164 345.400 C 226.886 344.850,227.622 344.400,227.800 344.400 C 227.978 344.400,228.730 343.938,229.469 343.374 C 231.352 341.938,236.060 338.800,236.331 338.800 C 236.729 338.800,239.788 336.621,240.120 336.101 C 240.296 335.826,240.706 335.600,241.032 335.600 C 241.358 335.600,241.729 335.330,241.855 335.000 C 241.982 334.670,242.305 334.400,242.573 334.400 C 242.841 334.400,243.483 333.950,244.000 333.400 C 244.517 332.850,245.178 332.400,245.470 332.400 C 245.761 332.400,246.000 332.220,246.000 332.000 C 246.000 331.780,246.206 331.600,246.459 331.600 C 246.711 331.600,247.656 330.998,248.559 330.262 C 249.461 329.526,250.650 328.690,251.200 328.404 C 251.750 328.117,252.759 327.414,253.443 326.841 C 255.812 324.856,256.341 324.460,257.268 323.973 C 257.781 323.704,258.920 322.871,259.800 322.122 C 262.119 320.148,262.325 320.000,262.760 320.000 C 262.977 320.000,264.200 319.036,265.477 317.857 C 266.755 316.678,268.340 315.434,269.000 315.093 C 269.660 314.751,270.729 313.915,271.375 313.236 C 272.021 312.556,272.694 312.000,272.871 312.000 C 273.048 312.000,273.709 311.460,274.340 310.800 C 274.971 310.140,275.682 309.600,275.921 309.600 C 276.159 309.600,276.590 309.282,276.877 308.893 C 277.341 308.267,278.321 307.501,280.329 306.200 C 280.669 305.980,281.708 305.035,282.638 304.100 C 283.568 303.165,284.468 302.400,284.639 302.400 C 285.006 302.400,286.843 300.670,293.361 294.187 C 296.023 291.540,299.028 288.818,300.040 288.138 C 301.237 287.333,302.187 286.267,302.760 285.083 C 303.799 282.937,306.688 280.143,308.276 279.748 C 309.842 279.359,311.744 278.052,312.521 276.830 C 312.882 276.263,313.407 275.447,313.689 275.016 C 313.970 274.585,315.415 273.011,316.900 271.519 C 318.385 270.027,319.600 268.701,319.600 268.574 C 319.600 268.446,320.995 266.818,322.700 264.957 C 324.405 263.096,325.873 261.354,325.963 261.086 C 326.053 260.819,326.908 259.827,327.863 258.881 C 328.818 257.936,329.600 257.023,329.600 256.851 C 329.600 256.680,330.050 256.117,330.600 255.600 C 331.150 255.083,331.600 254.506,331.600 254.317 C 331.600 254.128,332.140 253.445,332.800 252.800 C 333.460 252.155,334.000 251.483,334.000 251.306 C 334.000 251.013,336.284 247.988,337.780 246.300 C 338.121 245.915,338.400 245.451,338.400 245.270 C 338.400 245.088,338.865 244.503,339.434 243.970 C 340.003 243.436,340.804 242.264,341.215 241.365 C 341.625 240.466,342.239 239.499,342.580 239.216 C 342.921 238.934,343.200 238.482,343.200 238.213 C 343.200 237.944,343.651 237.201,344.201 236.562 C 344.752 235.923,345.556 234.680,345.989 233.800 C 347.829 230.060,348.774 228.786,351.700 226.102 C 352.085 225.749,352.400 225.147,352.400 224.763 C 352.400 224.380,352.625 223.985,352.900 223.886 C 353.296 223.742,353.290 223.519,352.873 222.814 C 352.436 222.076,352.436 221.810,352.875 221.262 C 353.167 220.898,353.854 219.700,354.403 218.600 C 354.951 217.500,355.516 216.510,355.659 216.400 C 355.801 216.290,356.121 215.443,356.369 214.517 C 356.618 213.591,356.997 212.726,357.211 212.593 C 357.425 212.461,357.600 212.030,357.600 211.636 C 357.600 211.242,358.050 210.073,358.600 209.038 C 359.150 208.004,359.600 206.897,359.600 206.579 C 359.600 206.260,359.762 206.000,359.960 206.000 C 360.158 206.000,360.536 205.100,360.800 204.000 C 361.064 202.900,361.409 202.000,361.567 202.000 C 361.724 202.000,362.086 200.828,362.371 199.396 C 362.655 197.964,363.033 196.703,363.209 196.594 C 363.386 196.485,363.652 195.677,363.800 194.798 C 363.949 193.919,364.211 193.200,364.383 193.200 C 364.555 193.200,364.916 192.075,365.186 190.700 C 365.455 189.325,365.808 188.020,365.970 187.800 C 366.132 187.580,366.499 185.870,366.785 184.000 C 367.071 182.130,367.443 180.420,367.612 180.200 C 367.781 179.980,368.051 178.180,368.211 176.200 C 368.372 174.220,368.636 172.510,368.798 172.400 C 369.850 171.685,369.917 141.506,368.868 140.833 C 368.668 140.705,368.374 139.026,368.216 137.101 C 368.058 135.177,367.781 133.512,367.600 133.400 C 367.420 133.288,367.059 131.938,366.800 130.399 C 366.540 128.859,366.200 127.600,366.044 127.600 C 365.888 127.600,365.537 126.520,365.264 125.200 C 364.992 123.880,364.616 122.800,364.429 122.800 C 364.242 122.800,363.977 122.205,363.841 121.478 C 363.704 120.750,363.234 119.452,362.796 118.593 C 362.358 117.734,362.000 116.799,362.000 116.515 C 362.000 116.232,361.841 116.000,361.647 116.000 C 361.454 116.000,361.097 115.235,360.854 114.300 C 360.594 113.298,359.522 111.499,358.242 109.918 C 357.048 108.442,355.942 106.642,355.784 105.918 C 355.626 105.193,355.070 104.091,354.548 103.469 C 354.027 102.847,353.600 102.142,353.600 101.901 C 353.600 101.660,353.342 101.178,353.028 100.831 C 352.713 100.483,352.188 99.683,351.861 99.053 C 351.534 98.423,350.072 96.668,348.611 95.154 C 347.151 93.639,346.084 92.400,346.240 92.400 C 346.396 92.400,346.228 92.073,345.867 91.674 C 345.506 91.275,345.010 90.375,344.766 89.674 C 344.522 88.973,344.069 88.400,343.761 88.400 C 343.452 88.400,343.197 88.265,343.192 88.100 C 343.188 87.935,342.292 87.260,341.200 86.600 C 340.108 85.940,339.212 85.285,339.208 85.143 C 339.203 85.002,338.750 84.774,338.200 84.636 C 337.650 84.498,337.200 84.200,337.200 83.973 C 337.200 83.491,335.241 81.600,334.741 81.600 C 334.296 81.600,331.200 78.410,331.200 77.952 C 331.200 77.758,330.828 77.600,330.374 77.600 C 329.193 77.600,327.954 76.897,325.982 75.110 C 325.563 74.731,324.766 74.306,324.210 74.167 C 323.655 74.027,323.200 73.755,323.200 73.562 C 323.200 73.369,322.615 72.932,321.900 72.591 C 319.724 71.554,318.211 70.693,317.996 70.370 C 317.884 70.201,317.299 69.940,316.696 69.788 C 316.093 69.637,315.600 69.382,315.600 69.221 C 315.600 69.060,314.880 68.690,314.000 68.400 C 313.120 68.110,312.400 67.739,312.400 67.576 C 312.400 67.413,311.500 67.064,310.400 66.800 C 309.300 66.536,308.400 66.178,308.400 66.005 C 308.400 65.831,307.770 65.571,307.000 65.426 C 306.230 65.282,305.600 65.021,305.600 64.846 C 305.600 64.671,304.295 64.287,302.700 63.991 C 301.105 63.696,299.702 63.311,299.582 63.137 C 299.463 62.962,297.978 62.613,296.282 62.361 C 294.587 62.109,293.200 61.771,293.200 61.609 C 293.200 61.448,291.924 61.209,290.366 61.078 C 288.807 60.948,287.286 60.638,286.987 60.389 C 286.424 59.922,266.908 59.534,260.700 59.867 M156.400 64.755 C 156.400 64.951,155.770 65.229,155.000 65.374 C 154.230 65.518,153.600 65.808,153.600 66.018 C 153.600 66.228,153.351 66.400,153.046 66.400 C 152.378 66.400,149.200 69.595,149.200 70.267 C 149.200 70.529,148.886 71.056,148.503 71.440 C 147.687 72.255,147.444 80.987,148.223 81.514 C 148.455 81.671,148.882 82.385,149.171 83.100 C 149.460 83.815,149.834 84.400,150.002 84.400 C 150.170 84.400,150.404 84.773,150.524 85.230 C 150.643 85.686,151.114 86.157,151.570 86.276 C 152.027 86.396,152.400 86.629,152.400 86.795 C 152.400 86.960,153.210 87.323,154.200 87.600 C 155.190 87.877,156.000 88.222,156.000 88.367 C 156.000 88.512,156.581 88.674,157.290 88.728 C 158.000 88.782,159.035 89.132,159.590 89.505 C 160.146 89.878,161.455 90.599,162.500 91.107 C 163.545 91.615,164.400 92.190,164.400 92.384 C 164.400 92.578,164.939 92.855,165.598 92.999 C 166.256 93.144,166.931 93.492,167.098 93.773 C 167.264 94.053,167.658 94.365,167.974 94.466 C 168.539 94.646,168.694 158.769,168.133 160.230 C 168.023 160.517,167.408 160.866,166.767 161.007 C 166.125 161.148,165.600 161.429,165.600 161.632 C 165.600 162.184,164.497 162.075,164.264 161.500 C 164.116 161.137,163.971 161.123,163.730 161.450 C 163.549 161.697,162.834 162.022,162.141 162.172 C 161.449 162.323,160.578 162.782,160.206 163.194 C 159.833 163.605,158.825 164.061,157.964 164.206 C 157.104 164.351,156.400 164.626,156.400 164.817 C 156.400 165.008,155.770 165.282,155.000 165.426 C 154.230 165.571,153.600 165.826,153.600 165.992 C 153.600 166.159,152.835 166.401,151.900 166.530 C 147.798 167.095,146.586 167.341,146.383 167.650 C 146.123 168.044,141.296 168.781,138.900 168.792 C 137.965 168.796,137.200 168.962,137.200 169.159 C 137.200 169.357,135.895 169.649,134.300 169.807 C 132.705 169.966,131.272 170.299,131.115 170.548 C 130.716 171.180,107.273 171.163,106.878 170.530 C 106.725 170.286,105.025 169.955,103.100 169.796 C 101.175 169.636,99.600 169.347,99.600 169.153 C 99.600 168.959,99.153 168.800,98.607 168.800 C 97.234 168.800,91.845 167.880,91.600 167.604 C 91.490 167.479,90.332 167.160,89.027 166.895 C 87.722 166.629,86.552 166.257,86.427 166.067 C 86.302 165.877,85.211 165.608,84.002 165.468 C 82.794 165.329,81.747 165.042,81.677 164.830 C 81.606 164.619,80.570 164.227,79.374 163.959 C 78.178 163.692,77.200 163.350,77.200 163.200 C 77.200 163.050,76.210 162.706,75.000 162.435 C 73.790 162.164,72.800 161.790,72.800 161.603 C 72.800 161.416,72.260 161.145,71.600 161.000 C 70.940 160.855,70.400 160.573,70.400 160.374 C 70.400 160.175,69.590 159.808,68.600 159.558 C 67.610 159.309,66.800 158.975,66.800 158.816 C 66.800 158.657,65.675 158.208,64.300 157.818 C 61.141 156.921,61.366 157.015,59.000 155.600 C 57.900 154.942,56.550 154.181,56.000 153.910 C 55.450 153.638,54.910 153.319,54.800 153.200 C 54.690 153.081,54.074 152.717,53.431 152.392 C 50.649 150.984,50.800 151.240,50.800 147.905 C 50.800 146.197,50.944 144.800,51.119 144.800 C 51.295 144.800,51.659 143.053,51.928 140.918 C 52.198 138.783,52.562 136.938,52.737 136.818 C 52.912 136.698,53.284 135.296,53.564 133.701 C 53.843 132.107,54.220 130.711,54.401 130.599 C 54.582 130.487,54.852 129.677,55.000 128.798 C 55.149 127.919,55.413 127.200,55.588 127.200 C 55.762 127.200,56.109 126.390,56.358 125.400 C 56.608 124.410,56.975 123.600,57.174 123.600 C 57.373 123.600,57.651 123.078,57.791 122.441 C 57.931 121.803,58.570 120.588,59.212 119.741 C 59.853 118.893,60.383 118.037,60.389 117.838 C 60.395 117.639,60.850 116.886,61.400 116.164 C 61.950 115.443,62.400 114.753,62.400 114.630 C 62.400 114.507,62.940 113.891,63.600 113.260 C 64.260 112.629,64.800 111.933,64.800 111.713 C 64.800 111.493,65.520 110.495,66.400 109.495 C 67.280 108.495,68.000 107.561,68.000 107.420 C 68.000 107.036,71.907 103.200,72.298 103.200 C 72.815 103.200,76.000 99.832,76.000 99.285 C 76.000 99.018,76.166 98.800,76.368 98.800 C 76.571 98.800,76.863 98.215,77.018 97.500 C 77.174 96.785,77.438 96.110,77.607 96.000 C 77.987 95.751,78.301 88.800,77.932 88.800 C 77.784 88.800,77.545 88.260,77.400 87.599 C 77.144 86.436,74.141 82.800,73.436 82.800 C 73.245 82.800,72.868 82.498,72.598 82.129 C 72.262 81.670,71.333 81.403,69.654 81.281 C 68.304 81.184,67.200 80.945,67.200 80.752 C 67.200 80.558,66.750 80.400,66.200 80.400 C 65.650 80.400,65.200 80.580,65.200 80.800 C 65.200 81.020,64.597 81.200,63.860 81.200 C 62.175 81.200,59.900 81.961,59.480 82.664 C 59.304 82.959,58.985 83.200,58.772 83.200 C 58.558 83.200,57.473 84.100,56.362 85.200 C 55.250 86.300,54.168 87.200,53.958 87.200 C 53.747 87.200,53.472 87.469,53.346 87.798 C 53.219 88.126,52.955 88.296,52.758 88.174 C 52.561 88.052,52.400 88.217,52.400 88.540 C 52.400 88.863,51.320 90.197,50.000 91.504 C 48.680 92.812,47.600 93.999,47.600 94.141 C 47.600 94.283,47.285 94.733,46.900 95.139 C 46.515 95.546,45.840 96.385,45.400 97.005 C 44.960 97.625,44.420 98.327,44.199 98.566 C 43.484 99.340,41.600 102.373,41.600 102.749 C 41.600 102.950,41.330 103.218,41.000 103.345 C 40.670 103.471,40.400 103.823,40.400 104.126 C 40.400 104.429,40.040 105.093,39.600 105.600 C 39.160 106.107,38.800 106.765,38.800 107.061 C 38.800 107.358,38.611 107.600,38.379 107.600 C 38.148 107.600,37.770 108.140,37.540 108.800 C 37.310 109.460,36.979 110.000,36.805 110.000 C 36.631 110.000,36.249 110.810,35.957 111.800 C 35.665 112.790,35.285 113.600,35.113 113.600 C 34.941 113.600,34.800 114.037,34.800 114.571 C 34.800 115.106,34.575 115.781,34.300 116.071 C 33.714 116.691,32.800 119.162,32.800 120.128 C 32.800 120.498,32.640 120.800,32.445 120.800 C 32.250 120.800,31.870 121.970,31.600 123.400 C 31.330 124.830,30.956 126.000,30.768 126.000 C 30.581 126.000,30.308 126.900,30.162 128.000 C 30.016 129.100,29.774 130.000,29.624 130.000 C 29.474 130.000,29.115 131.935,28.828 134.300 C 28.540 136.665,28.101 138.728,27.852 138.885 C 27.236 139.274,27.208 169.899,27.823 170.315 C 28.056 170.472,28.481 172.580,28.767 175.000 C 29.054 177.420,29.426 179.580,29.595 179.800 C 29.763 180.020,30.026 181.235,30.179 182.500 C 30.332 183.765,30.596 184.800,30.764 184.800 C 30.933 184.800,31.309 186.330,31.600 188.200 C 31.891 190.070,32.260 191.600,32.420 191.600 C 32.580 191.600,32.834 192.275,32.985 193.100 C 33.136 193.925,33.493 194.964,33.779 195.409 C 34.065 195.854,34.427 196.979,34.585 197.909 C 34.742 198.839,35.022 199.600,35.206 199.600 C 35.391 199.600,35.764 200.590,36.035 201.800 C 36.306 203.010,36.671 204.000,36.846 204.000 C 37.021 204.000,37.282 204.630,37.426 205.400 C 37.571 206.170,37.868 206.800,38.087 206.800 C 38.306 206.800,38.382 207.070,38.255 207.400 C 38.129 207.730,38.199 208.000,38.413 208.000 C 38.626 208.000,38.800 208.261,38.800 208.580 C 38.800 208.899,39.074 209.314,39.409 209.501 C 39.744 209.689,40.240 210.931,40.512 212.263 C 40.783 213.594,41.215 214.936,41.471 215.244 C 41.726 215.552,42.056 216.285,42.204 216.873 C 42.351 217.461,42.726 218.039,43.036 218.159 C 43.346 218.278,43.600 218.651,43.600 218.987 C 43.600 219.324,43.780 219.600,44.000 219.600 C 44.220 219.600,44.400 219.872,44.400 220.205 C 44.400 220.803,45.171 222.412,45.644 222.800 C 45.778 222.910,46.129 223.675,46.424 224.500 C 46.719 225.325,47.105 226.000,47.280 226.000 C 47.456 226.000,47.600 226.276,47.600 226.613 C 47.600 226.949,47.859 227.324,48.176 227.446 C 48.492 227.567,48.869 228.204,49.013 228.860 C 49.157 229.517,49.498 230.139,49.770 230.244 C 50.041 230.348,50.508 231.056,50.807 231.817 C 51.105 232.577,51.496 233.200,51.675 233.200 C 51.854 233.200,52.000 233.476,52.000 233.813 C 52.000 234.149,52.259 234.524,52.576 234.646 C 52.892 234.767,53.266 235.391,53.407 236.031 C 53.547 236.671,53.873 237.331,54.131 237.498 C 54.389 237.664,54.870 238.272,55.200 238.850 C 55.827 239.947,57.373 242.031,58.400 243.163 C 58.730 243.527,59.270 244.350,59.600 244.992 C 59.930 245.634,60.650 246.655,61.200 247.261 C 61.750 247.867,62.513 248.777,62.896 249.282 C 63.279 249.787,64.044 250.740,64.596 251.400 C 65.148 252.060,65.599 252.741,65.600 252.913 C 65.600 253.086,66.140 253.755,66.800 254.400 C 67.460 255.045,68.000 255.695,68.000 255.844 C 68.000 256.155,68.749 256.977,71.590 259.787 C 72.696 260.880,73.600 261.987,73.600 262.246 C 73.600 262.505,74.230 263.270,75.000 263.946 C 75.770 264.622,76.400 265.361,76.400 265.588 C 76.400 265.815,76.670 266.000,77.000 266.000 C 77.330 266.000,77.600 266.244,77.600 266.542 C 77.600 266.840,78.545 267.989,79.700 269.094 C 80.855 270.200,81.993 271.441,82.230 271.852 C 82.466 272.263,83.546 273.050,84.630 273.600 C 85.713 274.150,86.660 274.735,86.733 274.900 C 86.940 275.364,96.000 275.267,96.000 274.800 C 96.000 274.580,96.200 274.400,96.444 274.400 C 97.359 274.400,100.771 271.113,101.570 269.461 C 102.890 266.736,102.552 257.200,101.137 257.200 C 100.952 257.200,100.800 256.961,100.800 256.670 C 100.800 256.020,99.131 254.400,98.462 254.400 C 98.194 254.400,97.860 254.085,97.720 253.700 C 97.579 253.315,96.516 252.010,95.358 250.800 C 92.425 247.737,90.000 244.958,90.000 244.659 C 90.000 244.520,89.460 243.891,88.800 243.260 C 88.140 242.629,87.600 241.959,87.600 241.771 C 87.600 241.582,87.241 241.062,86.802 240.614 C 85.394 239.177,84.000 237.298,84.000 236.837 C 84.000 236.026,82.218 233.647,81.294 233.225 C 80.796 232.998,80.182 232.359,79.930 231.806 C 79.678 231.253,79.316 230.800,79.126 230.800 C 78.936 230.800,78.609 230.350,78.400 229.800 C 78.191 229.250,77.835 228.800,77.610 228.800 C 77.384 228.800,77.200 228.601,77.200 228.358 C 77.200 228.115,76.750 227.381,76.200 226.727 C 75.650 226.073,75.200 225.282,75.200 224.969 C 75.200 224.656,75.057 224.400,74.883 224.400 C 74.708 224.400,74.033 223.504,73.383 222.408 C 72.732 221.312,72.085 220.412,71.943 220.408 C 71.802 220.404,71.577 219.963,71.443 219.428 C 71.309 218.893,70.953 218.210,70.653 217.910 C 70.353 217.610,69.461 216.168,68.672 214.706 C 66.592 210.854,66.228 210.223,65.956 210.000 C 65.822 209.890,65.471 209.125,65.176 208.300 C 64.881 207.475,64.510 206.800,64.351 206.800 C 64.193 206.800,63.945 206.260,63.800 205.600 C 63.655 204.940,63.393 204.400,63.218 204.400 C 63.043 204.400,62.796 203.882,62.670 203.248 C 62.543 202.615,62.187 201.844,61.879 201.536 C 61.571 201.228,61.078 200.037,60.784 198.888 C 60.490 197.740,60.117 196.800,59.956 196.800 C 59.795 196.800,59.536 196.218,59.379 195.506 C 59.223 194.794,58.862 193.849,58.577 193.406 C 58.292 192.963,57.936 191.925,57.785 191.100 C 57.634 190.275,57.376 189.600,57.210 189.600 C 57.045 189.600,56.680 188.520,56.400 187.200 C 56.120 185.880,55.751 184.800,55.581 184.800 C 55.410 184.800,55.151 184.035,55.006 183.100 C 54.861 182.165,54.647 181.067,54.531 180.659 C 54.312 179.891,56.700 180.033,57.204 180.819 C 57.316 180.993,57.901 181.260,58.504 181.412 C 59.107 181.563,59.600 181.811,59.600 181.963 C 59.600 182.115,60.275 182.468,61.100 182.748 C 62.571 183.248,63.902 183.802,66.500 184.999 C 67.215 185.328,68.385 185.710,69.100 185.849 C 69.815 185.987,70.400 186.229,70.400 186.386 C 70.400 186.544,71.435 186.901,72.700 187.181 C 73.965 187.460,75.180 187.825,75.400 187.992 C 75.620 188.159,76.746 188.517,77.901 188.788 C 79.057 189.059,80.091 189.424,80.199 189.598 C 80.307 189.773,81.972 190.143,83.898 190.420 C 85.824 190.698,87.588 191.068,87.817 191.243 C 88.047 191.418,89.442 191.684,90.917 191.836 C 92.393 191.987,93.600 192.233,93.600 192.383 C 93.600 192.533,95.260 192.877,97.288 193.147 C 99.317 193.417,101.110 193.854,101.274 194.119 C 101.690 194.793,131.446 194.809,132.839 194.136 C 133.368 193.881,136.137 193.463,138.994 193.208 C 141.850 192.953,144.280 192.603,144.394 192.432 C 144.507 192.260,145.828 191.996,147.328 191.846 C 148.828 191.695,150.358 191.410,150.728 191.213 C 151.098 191.015,152.550 190.647,153.955 190.396 C 155.360 190.144,156.800 189.788,157.155 189.604 C 157.510 189.421,158.880 189.041,160.200 188.761 C 161.520 188.480,162.960 188.032,163.400 187.765 C 163.840 187.497,164.824 187.148,165.587 186.988 C 166.350 186.829,167.286 186.503,167.669 186.264 C 168.051 186.026,168.425 185.913,168.500 186.015 C 169.046 186.752,168.147 311.291,167.600 310.744 C 167.270 310.414,166.102 309.919,165.005 309.643 C 163.908 309.367,162.883 308.934,162.727 308.681 C 162.245 307.901,154.280 307.777,153.520 308.538 C 153.177 308.880,152.410 309.283,151.816 309.432 C 151.222 309.581,150.641 309.950,150.525 310.251 C 150.409 310.553,150.089 310.800,149.813 310.800 C 149.538 310.800,148.972 311.270,148.556 311.844 C 148.140 312.419,147.554 313.147,147.254 313.462 C 145.530 315.271,145.587 325.006,147.333 327.052 C 148.916 328.906,150.060 330.000,150.416 330.000 C 150.641 330.000,150.941 330.301,151.082 330.669 C 151.505 331.773,152.667 332.725,154.074 333.123 C 156.045 333.679,158.800 334.945,158.800 335.294 C 158.800 335.462,159.039 335.600,159.330 335.600 C 159.622 335.600,160.283 336.050,160.800 336.600 C 161.317 337.150,161.978 337.600,162.270 337.600 C 162.561 337.600,162.800 337.780,162.800 338.000 C 162.800 338.220,163.008 338.400,163.262 338.400 C 163.516 338.400,164.314 338.850,165.036 339.400 C 165.757 339.950,166.522 340.400,166.735 340.400 C 166.949 340.400,167.865 341.019,168.771 341.776 C 169.677 342.533,170.774 343.265,171.209 343.403 C 171.644 343.541,172.000 343.822,172.000 344.027 C 172.000 344.232,172.242 344.400,172.538 344.400 C 172.834 344.400,173.402 344.760,173.800 345.200 C 174.198 345.640,174.757 346.000,175.042 346.000 C 175.327 346.000,175.704 346.229,175.880 346.508 C 176.056 346.788,176.650 347.240,177.200 347.512 C 179.071 348.438,180.997 349.692,182.291 350.827 C 184.603 352.856,188.773 352.936,190.719 350.990 L 191.800 349.909 191.896 262.855 C 192.093 83.247,192.092 83.083,191.413 82.703 C 191.076 82.515,190.800 82.099,190.800 81.780 C 190.800 81.461,190.500 81.200,190.133 81.200 C 189.767 81.200,189.586 81.081,189.731 80.936 C 189.984 80.682,188.814 79.639,188.398 79.747 C 188.286 79.776,187.296 78.875,186.198 77.745 C 184.976 76.488,183.708 75.585,182.933 75.420 C 182.237 75.272,181.567 74.892,181.446 74.576 C 181.324 74.259,181.032 74.000,180.796 74.000 C 180.365 74.000,178.300 72.645,177.263 71.680 C 176.955 71.395,176.197 71.059,175.577 70.935 C 174.958 70.812,174.355 70.460,174.238 70.155 C 174.121 69.850,173.749 69.600,173.413 69.600 C 173.076 69.600,172.800 69.449,172.800 69.264 C 172.800 69.079,172.080 68.690,171.200 68.400 C 170.320 68.110,169.600 67.744,169.600 67.588 C 169.600 67.432,168.793 67.078,167.807 66.802 C 166.821 66.526,166.099 66.163,166.203 65.996 C 166.417 65.649,165.039 65.214,163.700 65.205 C 163.205 65.202,162.800 65.020,162.800 64.800 C 162.800 64.567,161.467 64.400,159.600 64.400 C 157.840 64.400,156.400 64.560,156.400 64.755 M280.400 83.593 C 280.510 83.752,281.680 83.999,283.000 84.142 C 288.529 84.741,289.600 84.919,289.600 85.237 C 289.600 85.422,290.500 85.692,291.600 85.838 C 292.700 85.984,293.600 86.237,293.600 86.400 C 293.600 86.563,294.455 86.811,295.500 86.951 C 296.545 87.091,297.916 87.474,298.546 87.803 C 299.176 88.131,299.868 88.400,300.084 88.400 C 300.300 88.400,300.954 88.738,301.538 89.150 C 302.122 89.563,303.185 90.027,303.900 90.182 C 304.615 90.337,305.200 90.614,305.200 90.798 C 305.200 90.983,306.325 91.704,307.700 92.402 C 310.164 93.653,313.902 96.052,314.363 96.680 C 314.494 96.857,315.135 97.271,315.788 97.601 C 317.171 98.299,318.400 99.427,318.400 100.000 C 318.400 100.220,318.544 100.400,318.720 100.400 C 318.896 100.400,320.043 101.293,321.268 102.385 C 322.493 103.478,323.583 104.283,323.691 104.176 C 323.798 104.068,324.114 104.255,324.392 104.590 C 324.670 104.926,325.146 105.200,325.449 105.200 C 325.752 105.200,326.000 105.448,326.000 105.751 C 326.000 106.054,326.259 106.517,326.576 106.780 C 326.893 107.043,327.065 107.487,326.958 107.766 C 326.850 108.048,327.707 109.009,328.881 109.923 C 331.740 112.148,334.116 114.724,334.763 116.300 C 335.057 117.015,335.467 117.600,335.675 117.600 C 335.884 117.600,335.940 117.960,335.800 118.400 C 335.654 118.859,335.728 119.200,335.973 119.200 C 336.208 119.200,336.400 119.439,336.400 119.730 C 336.400 120.022,336.830 120.665,337.356 121.159 C 337.882 121.653,338.535 122.854,338.808 123.828 C 339.081 124.803,339.439 125.600,339.604 125.600 C 339.770 125.600,340.109 126.410,340.358 127.400 C 340.608 128.390,340.989 129.200,341.206 129.200 C 341.423 129.200,341.600 129.569,341.600 130.019 C 341.600 130.470,341.944 131.552,342.365 132.423 C 342.786 133.294,343.252 134.726,343.401 135.604 C 343.549 136.482,343.834 137.200,344.035 137.200 C 344.236 137.200,344.400 137.647,344.400 138.193 C 344.400 139.881,345.274 144.950,345.734 145.934 C 346.298 147.138,346.306 166.354,345.743 166.734 C 345.527 166.880,345.114 169.250,344.826 172.000 C 344.537 174.750,344.155 177.093,343.977 177.208 C 343.798 177.322,343.527 178.357,343.375 179.508 C 343.222 180.658,342.956 181.600,342.785 181.600 C 342.613 181.600,342.260 182.860,342.000 184.400 C 341.740 185.940,341.389 187.200,341.219 187.200 C 341.048 187.200,340.680 188.280,340.400 189.600 C 340.120 190.920,339.743 192.000,339.563 192.000 C 339.383 192.000,339.118 192.630,338.974 193.400 C 338.829 194.170,338.568 194.800,338.393 194.800 C 338.218 194.800,338.169 195.160,338.284 195.600 C 338.399 196.040,338.312 196.400,338.091 196.400 C 337.870 196.400,337.571 197.030,337.426 197.800 C 337.282 198.570,337.026 199.200,336.857 199.200 C 336.689 199.200,336.321 200.100,336.039 201.200 C 335.757 202.300,335.366 203.200,335.171 203.200 C 334.975 203.200,334.702 203.650,334.564 204.200 C 334.426 204.750,334.171 205.200,333.997 205.200 C 333.822 205.200,333.464 206.100,333.200 207.200 C 332.936 208.300,332.594 209.200,332.440 209.200 C 332.287 209.200,331.933 209.830,331.654 210.600 C 331.376 211.370,330.992 212.000,330.801 212.000 C 330.610 212.000,330.331 212.386,330.182 212.858 C 330.032 213.330,329.424 214.190,328.831 214.769 C 328.239 215.349,327.516 216.673,327.225 217.711 C 326.934 218.750,326.583 219.600,326.446 219.600 C 326.308 219.600,325.936 220.185,325.620 220.900 C 325.082 222.115,324.852 222.467,323.783 223.714 C 323.554 223.981,323.127 224.785,322.835 225.500 C 322.542 226.215,322.140 226.800,321.942 226.800 C 321.743 226.800,321.409 227.250,321.200 227.800 C 320.991 228.350,320.635 228.800,320.410 228.800 C 320.184 228.800,320.000 228.999,320.000 229.242 C 320.000 229.640,318.903 231.179,317.463 232.800 C 317.170 233.130,316.816 233.715,316.678 234.100 C 316.539 234.485,316.239 234.800,316.013 234.800 C 315.786 234.800,315.600 235.076,315.600 235.413 C 315.600 235.749,315.299 236.141,314.931 236.282 C 313.887 236.682,312.961 237.763,312.481 239.139 C 312.240 239.832,311.494 240.984,310.823 241.699 C 310.152 242.415,309.603 243.121,309.602 243.269 C 309.601 243.417,308.880 244.244,308.000 245.107 C 307.120 245.969,306.400 246.805,306.400 246.964 C 306.400 247.124,305.770 247.848,305.000 248.574 C 304.230 249.300,303.600 250.063,303.600 250.270 C 303.600 250.477,302.520 251.690,301.200 252.967 C 299.880 254.244,298.800 255.457,298.800 255.663 C 298.800 256.118,296.820 258.000,296.342 258.000 C 296.154 258.000,296.000 258.163,296.000 258.362 C 296.000 258.779,282.047 272.800,281.633 272.800 C 281.393 272.800,277.940 275.951,273.535 280.190 C 272.730 280.966,271.920 281.606,271.735 281.613 C 271.551 281.620,270.685 282.340,269.811 283.213 C 268.937 284.086,268.076 284.800,267.898 284.800 C 267.721 284.800,266.997 285.430,266.290 286.200 C 265.584 286.970,264.863 287.600,264.689 287.600 C 264.515 287.600,263.845 288.140,263.200 288.800 C 262.555 289.460,261.856 290.000,261.647 290.000 C 261.439 290.000,260.758 290.540,260.135 291.200 C 259.512 291.860,258.822 292.408,258.601 292.417 C 258.381 292.426,257.758 292.966,257.219 293.617 C 256.679 294.268,255.998 294.800,255.706 294.800 C 255.414 294.800,255.074 295.063,254.950 295.385 C 254.827 295.706,254.405 296.071,254.013 296.196 C 253.621 296.320,252.602 297.052,251.750 297.821 C 249.453 299.894,248.826 300.400,248.558 300.400 C 248.305 300.400,246.264 301.966,245.166 303.002 C 244.818 303.331,244.391 303.600,244.217 303.600 C 244.043 303.600,243.188 304.410,242.316 305.400 C 241.445 306.390,240.477 307.200,240.166 307.200 C 239.855 307.200,239.600 307.384,239.600 307.610 C 239.600 307.835,239.150 308.191,238.600 308.400 C 238.050 308.609,237.600 308.965,237.600 309.190 C 237.600 309.416,237.401 309.600,237.158 309.600 C 236.776 309.600,236.012 310.134,233.717 312.006 C 233.451 312.223,233.079 312.400,232.889 312.400 C 232.699 312.400,231.804 313.033,230.900 313.807 C 229.996 314.581,229.156 315.053,229.034 314.855 C 228.912 314.658,228.801 265.571,228.787 205.773 L 228.762 97.050 230.055 96.038 C 231.590 94.837,232.433 94.358,237.078 92.050 C 243.058 89.078,244.586 88.400,245.306 88.400 C 245.688 88.400,246.000 88.242,246.000 88.050 C 246.000 87.857,247.080 87.460,248.400 87.167 C 249.720 86.875,250.800 86.513,250.800 86.364 C 250.800 86.214,251.787 85.969,252.994 85.818 C 254.200 85.667,255.279 85.395,255.392 85.214 C 255.504 85.032,257.172 84.663,259.098 84.394 C 261.024 84.125,262.790 83.753,263.022 83.568 C 263.852 82.906,279.941 82.929,280.400 83.593 " stroke="none" fill="#e4041c" fill-rule="evenodd"></path><path id="path2" d="M280.246 84.075 C 280.357 84.254,281.112 84.404,281.924 84.410 C 282.736 84.415,284.097 84.581,284.949 84.778 C 285.818 84.980,286.344 84.984,286.147 84.787 C 285.695 84.335,279.981 83.645,280.246 84.075 M259.400 84.291 C 258.740 84.385,258.051 84.606,257.869 84.782 C 257.687 84.958,258.407 84.953,259.469 84.772 C 260.531 84.590,261.850 84.367,262.400 84.275 C 263.762 84.049,260.998 84.063,259.400 84.291 M289.406 85.610 C 289.506 85.772,290.035 85.990,290.582 86.094 C 291.129 86.199,291.494 86.152,291.394 85.990 C 291.294 85.828,290.765 85.610,290.218 85.506 C 289.671 85.401,289.306 85.448,289.406 85.610 M253.700 85.876 C 254.085 85.976,254.715 85.976,255.100 85.876 C 255.485 85.775,255.170 85.693,254.400 85.693 C 253.630 85.693,253.315 85.775,253.700 85.876 M295.406 87.210 C 295.506 87.372,296.035 87.590,296.582 87.694 C 297.129 87.799,297.494 87.752,297.394 87.590 C 297.294 87.428,296.765 87.210,296.218 87.106 C 295.671 87.001,295.306 87.048,295.406 87.210 M244.920 88.442 C 244.216 88.646,243.544 88.968,243.427 89.157 C 243.194 89.534,245.817 88.717,246.259 88.274 C 246.575 87.959,246.607 87.955,244.920 88.442 M163.400 92.129 C 164.060 92.704,164.960 93.296,165.400 93.443 C 167.447 94.127,168.192 95.182,168.431 97.733 L 168.662 100.200 168.731 97.747 C 168.805 95.129,168.240 94.353,165.200 92.893 C 164.650 92.628,163.750 92.113,163.200 91.747 C 162.491 91.276,162.549 91.387,163.400 92.129 M313.398 96.337 C 313.834 96.852,314.553 97.459,314.996 97.686 C 315.845 98.121,315.721 97.987,313.803 96.394 C 312.648 95.435,312.634 95.433,313.398 96.337 M319.200 101.964 C 319.200 102.217,319.515 102.537,319.900 102.673 C 320.285 102.809,321.076 103.424,321.658 104.039 C 322.580 105.014,324.683 105.582,324.145 104.710 C 324.035 104.533,323.762 104.500,323.538 104.638 C 323.314 104.777,322.561 104.365,321.865 103.724 C 319.851 101.868,319.200 101.438,319.200 101.964 M70.040 105.360 C 68.820 106.595,67.999 107.751,68.122 108.060 C 68.280 108.456,68.345 108.429,68.368 107.958 C 68.386 107.605,69.379 106.390,70.576 105.258 C 71.773 104.126,72.622 103.200,72.462 103.200 C 72.303 103.200,71.213 104.172,70.040 105.360 M356.207 105.622 C 356.508 106.570,358.800 109.944,358.800 109.439 C 358.800 109.284,358.350 108.495,357.800 107.686 C 357.250 106.877,356.800 105.997,356.800 105.731 C 356.800 105.465,356.601 105.124,356.357 104.974 C 356.054 104.786,356.007 104.991,356.207 105.622 M323.600 106.338 C 323.600 106.524,323.960 107.002,324.400 107.400 C 324.840 107.798,325.203 107.961,325.206 107.762 C 325.209 107.563,325.380 107.665,325.584 107.988 C 325.789 108.312,326.101 108.422,326.278 108.234 C 326.455 108.045,326.355 107.803,326.055 107.697 C 325.755 107.590,325.220 107.165,324.866 106.752 C 324.189 105.961,323.600 105.768,323.600 106.338 M329.800 111.600 C 330.659 112.480,331.452 113.200,331.562 113.200 C 331.672 113.200,331.059 112.480,330.200 111.600 C 329.341 110.720,328.548 110.000,328.438 110.000 C 328.328 110.000,328.941 110.720,329.800 111.600 M360.644 113.400 C 360.973 114.871,361.202 115.190,361.194 114.167 C 361.191 113.745,361.005 113.130,360.782 112.800 C 360.485 112.362,360.448 112.524,360.644 113.400 M365.106 124.218 C 365.210 124.765,365.428 125.294,365.590 125.394 C 365.752 125.494,365.799 125.129,365.694 124.582 C 365.590 124.035,365.372 123.506,365.210 123.406 C 365.048 123.306,365.001 123.671,365.106 124.218 M56.679 124.700 C 56.369 125.253,55.932 127.402,56.180 127.154 C 56.477 126.856,57.205 124.400,56.996 124.400 C 56.914 124.400,56.771 124.535,56.679 124.700 M366.551 129.138 C 366.798 130.236,367.116 131.249,367.257 131.390 C 367.621 131.754,366.780 127.869,366.409 127.471 C 366.240 127.290,366.304 128.040,366.551 129.138 M228.400 131.776 C 228.400 132.313,228.547 132.844,228.728 132.955 C 228.908 133.067,228.977 132.627,228.882 131.979 C 228.672 130.549,228.400 130.435,228.400 131.776 M367.931 134.910 C 368.014 135.840,368.203 136.730,368.351 136.890 C 368.498 137.049,368.551 136.419,368.469 135.490 C 368.386 134.560,368.197 133.670,368.049 133.510 C 367.902 133.351,367.849 133.981,367.931 134.910 M53.354 134.977 C 53.232 135.294,53.203 135.879,53.289 136.277 C 53.387 136.728,53.524 136.512,53.654 135.700 C 53.871 134.338,53.730 133.996,53.354 134.977 M52.242 139.133 C 52.129 139.316,51.948 140.711,51.840 142.233 C 51.640 145.060,51.807 144.636,52.365 140.900 C 52.674 138.834,52.649 138.474,52.242 139.133 M228.493 142.400 C 228.493 143.170,228.575 143.485,228.676 143.100 C 228.776 142.715,228.776 142.085,228.676 141.700 C 228.575 141.315,228.493 141.630,228.493 142.400 M369.760 150.200 C 369.761 153.500,369.822 154.797,369.898 153.082 C 369.973 151.367,369.972 148.667,369.897 147.082 C 369.821 145.497,369.759 146.900,369.760 150.200 M53.200 152.286 C 53.530 152.408,54.160 152.674,54.600 152.876 C 55.387 153.238,55.388 153.234,54.624 152.622 C 54.196 152.280,53.566 152.014,53.224 152.032 C 52.685 152.059,52.682 152.093,53.200 152.286 M61.132 156.456 C 61.631 157.120,63.754 157.773,63.364 157.142 C 63.248 156.954,62.839 156.800,62.456 156.800 C 62.073 156.800,61.508 156.575,61.199 156.300 C 60.727 155.879,60.717 155.904,61.132 156.456 M369.770 160.133 C 369.658 160.427,369.620 162.182,369.686 164.033 L 369.807 167.400 370.004 163.499 C 370.199 159.625,370.163 159.110,369.770 160.133 M368.161 176.558 C 368.043 176.865,368.008 177.810,368.083 178.658 C 368.210 180.087,368.234 180.046,368.410 178.100 C 368.604 175.956,368.541 175.567,368.161 176.558 M54.756 180.233 C 54.658 181.039,54.884 182.616,55.134 182.880 C 55.280 183.035,55.382 182.537,55.360 181.774 C 55.323 180.518,54.863 179.344,54.756 180.233 M367.048 183.123 C 366.938 183.301,366.769 184.336,366.673 185.423 C 366.501 187.369,366.538 187.288,367.188 184.300 C 367.505 182.845,367.459 182.458,367.048 183.123 M63.200 184.084 C 63.310 184.193,64.026 184.493,64.791 184.751 C 65.556 185.010,66.006 185.050,65.791 184.839 C 65.576 184.629,64.860 184.329,64.200 184.172 C 63.540 184.016,63.090 183.976,63.200 184.084 M56.056 185.852 C 56.286 186.704,56.626 187.559,56.811 187.754 C 56.996 187.948,56.931 187.375,56.667 186.480 C 56.045 184.374,55.508 183.822,56.056 185.852 M168.566 193.600 C 168.566 197.670,168.625 199.335,168.698 197.300 C 168.771 195.265,168.771 191.935,168.698 189.900 C 168.625 187.865,168.566 189.530,168.566 193.600 M75.600 188.511 C 75.710 188.624,76.505 188.909,77.366 189.144 C 78.227 189.379,78.767 189.417,78.566 189.228 C 78.180 188.866,75.256 188.159,75.600 188.511 M160.500 188.812 C 159.224 189.325,159.380 189.629,160.700 189.202 C 161.305 189.007,162.160 188.767,162.600 188.670 C 163.228 188.531,163.185 188.488,162.400 188.472 C 161.850 188.460,160.995 188.613,160.500 188.812 M57.506 190.218 C 57.610 190.765,57.828 191.294,57.990 191.394 C 58.152 191.494,58.199 191.129,58.094 190.582 C 57.990 190.035,57.772 189.506,57.610 189.406 C 57.448 189.306,57.401 189.671,57.506 190.218 M80.216 190.026 C 80.312 190.181,80.923 190.386,81.574 190.482 C 82.225 190.577,82.679 190.529,82.584 190.374 C 82.488 190.219,81.877 190.014,81.226 189.918 C 80.575 189.823,80.121 189.871,80.216 190.026 M365.152 190.713 C 365.021 191.507,365.079 191.881,365.301 191.659 C 365.503 191.457,365.601 190.867,365.519 190.346 C 365.393 189.545,365.337 189.602,365.152 190.713 M87.816 191.626 C 87.912 191.781,88.523 191.986,89.174 192.082 C 89.825 192.177,90.279 192.129,90.184 191.974 C 90.088 191.819,89.477 191.614,88.826 191.518 C 88.175 191.423,87.721 191.471,87.816 191.626 M149.600 191.488 C 148.133 191.751,147.762 192.296,149.192 192.086 C 149.862 191.988,150.508 191.749,150.629 191.554 C 150.749 191.359,150.792 191.225,150.724 191.254 C 150.656 191.284,150.150 191.390,149.600 191.488 M93.496 192.831 C 93.861 193.165,99.290 193.958,98.964 193.629 C 98.840 193.503,97.490 193.209,95.965 192.976 C 94.440 192.743,93.329 192.677,93.496 192.831 M143.000 192.823 C 142.120 193.005,140.646 193.164,139.724 193.177 C 138.802 193.190,137.958 193.344,137.850 193.519 C 137.576 193.962,144.111 193.241,144.580 192.776 C 144.789 192.569,144.879 192.421,144.780 192.446 C 144.681 192.471,143.880 192.641,143.000 192.823 M101.118 194.468 C 101.273 194.615,102.607 194.795,104.082 194.868 C 105.557 194.940,106.637 194.880,106.482 194.732 C 106.327 194.585,104.993 194.405,103.518 194.332 C 102.043 194.260,100.963 194.320,101.118 194.468 M129.000 194.400 L 125.000 194.645 128.876 194.723 C 131.117 194.767,132.857 194.631,133.000 194.400 C 133.136 194.180,133.192 194.035,133.124 194.077 C 133.056 194.120,131.200 194.265,129.000 194.400 M60.405 197.619 C 60.615 198.349,60.956 199.116,61.163 199.323 C 61.370 199.530,61.317 199.051,61.044 198.258 C 60.400 196.385,59.911 195.896,60.405 197.619 M362.223 200.100 C 361.808 201.467,361.707 202.381,361.991 202.205 C 362.165 202.098,362.387 201.468,362.485 200.805 C 362.663 199.593,362.506 199.170,362.223 200.100 M360.779 204.255 C 360.558 204.836,360.452 205.385,360.543 205.476 C 360.633 205.567,360.899 205.092,361.133 204.420 C 361.653 202.928,361.339 202.782,360.779 204.255 M356.555 214.300 C 356.434 214.685,356.156 215.450,355.937 216.000 C 355.649 216.723,355.660 216.882,355.976 216.573 C 356.440 216.121,357.273 213.600,356.960 213.600 C 356.858 213.600,356.676 213.915,356.555 214.300 M88.997 243.201 C 90.893 245.418,90.920 245.442,90.486 244.600 C 90.259 244.160,89.562 243.351,88.937 242.801 L 87.800 241.803 88.997 243.201 M337.983 246.100 C 337.240 247.035,336.948 247.546,337.335 247.236 C 338.063 246.651,339.777 244.400,339.494 244.400 C 339.406 244.400,338.726 245.165,337.983 246.100 M94.000 249.325 C 94.000 249.394,94.585 249.979,95.300 250.625 L 96.600 251.800 95.425 250.500 C 94.330 249.288,94.000 249.016,94.000 249.325 M333.408 252.300 C 332.549 253.345,332.260 253.840,332.766 253.400 C 333.661 252.622,335.398 250.400,335.112 250.400 C 335.034 250.400,334.267 251.255,333.408 252.300 M97.600 253.200 C 98.070 253.860,98.544 254.400,98.654 254.400 C 98.764 254.400,98.470 253.860,98.000 253.200 C 97.530 252.540,97.056 252.000,96.946 252.000 C 96.836 252.000,97.130 252.540,97.600 253.200 M328.223 258.722 C 326.272 260.971,326.268 260.979,327.955 259.400 C 329.376 258.069,330.747 256.338,330.314 256.422 C 330.251 256.434,329.310 257.469,328.223 258.722 M101.673 257.875 C 102.379 259.535,102.894 259.988,102.371 258.490 C 102.124 257.780,101.758 257.097,101.558 256.974 C 101.358 256.850,101.409 257.256,101.673 257.875 M317.218 271.335 L 314.236 274.600 316.947 272.000 C 319.157 269.879,320.870 267.863,320.314 268.035 C 320.251 268.055,318.858 269.540,317.218 271.335 M91.400 275.200 L 86.600 275.439 91.276 275.520 C 94.053 275.567,96.053 275.437,96.200 275.200 C 96.336 274.980,96.392 274.836,96.324 274.880 C 96.256 274.925,94.040 275.069,91.400 275.200 M307.600 280.945 C 306.610 281.673,304.912 283.334,303.826 284.635 C 300.713 288.366,300.464 288.786,302.898 286.200 C 304.141 284.880,306.202 282.859,307.479 281.710 C 310.145 279.309,310.187 279.041,307.600 280.945 M295.714 292.641 C 293.341 294.974,291.760 296.696,292.200 296.468 C 293.100 296.002,300.739 288.400,300.306 288.400 C 300.154 288.400,298.087 290.308,295.714 292.641 M282.000 304.882 C 280.790 306.011,280.160 306.738,280.600 306.499 C 281.369 306.080,284.753 302.784,284.381 302.815 C 284.282 302.824,283.210 303.754,282.000 304.882 M239.400 307.232 C 237.027 309.026,236.708 309.532,238.933 307.972 C 240.614 306.794,241.529 305.975,241.124 306.011 C 241.056 306.017,240.280 306.567,239.400 307.232 M276.975 308.900 L 275.800 310.200 277.000 309.150 C 277.660 308.572,278.470 308.002,278.800 307.881 C 279.317 307.693,279.313 307.659,278.775 307.632 C 278.431 307.614,277.621 308.185,276.975 308.900 M240.653 336.014 C 239.582 336.886,238.832 337.600,238.985 337.600 C 239.139 337.600,240.016 336.994,240.933 336.254 C 241.850 335.513,242.870 334.807,243.200 334.685 C 243.733 334.488,243.733 334.461,243.200 334.446 C 242.870 334.436,241.724 335.142,240.653 336.014 M174.400 346.291 C 174.730 346.417,175.429 346.853,175.954 347.260 C 176.479 347.667,177.199 347.993,177.554 347.984 C 177.909 347.976,177.637 347.724,176.948 347.424 C 176.259 347.124,175.574 346.681,175.424 346.440 C 175.275 346.198,174.848 346.014,174.476 346.032 C 173.924 346.057,173.910 346.105,174.400 346.291 M217.919 350.757 C 215.275 352.263,214.995 352.699,217.472 351.456 C 218.611 350.883,219.657 350.232,219.795 350.008 C 220.110 349.499,220.173 349.473,217.919 350.757 " stroke="none" fill="#96111c" fill-rule="evenodd"></path><path id="path3" d="M251.045 86.328 C 250.933 86.508,251.373 86.577,252.021 86.482 C 252.670 86.387,253.200 86.240,253.200 86.155 C 253.200 85.850,251.243 86.007,251.045 86.328 M192.193 132.200 C 192.193 156.620,192.241 166.551,192.300 154.269 C 192.359 141.987,192.359 122.007,192.300 109.869 C 192.241 97.731,192.193 107.780,192.193 132.200 M318.032 100.073 C 318.014 100.443,318.585 101.134,319.300 101.609 L 320.600 102.473 319.556 101.504 C 318.981 100.971,318.411 100.279,318.287 99.967 C 318.116 99.535,318.056 99.560,318.032 100.073 M74.575 101.300 L 73.400 102.600 74.700 101.425 C 75.912 100.330,76.184 100.000,75.875 100.000 C 75.806 100.000,75.221 100.585,74.575 101.300 M320.800 102.525 C 320.800 102.594,321.385 103.179,322.100 103.825 L 323.400 105.000 322.225 103.700 C 321.130 102.488,320.800 102.216,320.800 102.525 M326.574 107.642 C 326.424 107.884,326.813 108.559,327.439 109.142 L 328.577 110.200 327.647 109.130 C 327.135 108.541,326.836 107.866,326.982 107.630 C 327.128 107.393,327.157 107.200,327.047 107.200 C 326.937 107.200,326.724 107.399,326.574 107.642 M356.800 107.538 C 356.800 107.724,357.188 108.219,357.662 108.638 L 358.524 109.400 357.816 108.300 C 357.086 107.166,356.800 106.951,356.800 107.538 M329.600 110.925 C 329.600 110.994,330.185 111.579,330.900 112.225 L 332.200 113.400 331.025 112.100 C 329.930 110.888,329.600 110.616,329.600 110.925 M53.552 133.513 C 53.421 134.307,53.479 134.681,53.701 134.459 C 53.903 134.257,54.001 133.667,53.919 133.146 C 53.793 132.345,53.737 132.402,53.552 133.513 M368.509 138.800 C 368.509 139.790,368.587 140.195,368.682 139.700 C 368.778 139.205,368.778 138.395,368.682 137.900 C 368.587 137.405,368.509 137.810,368.509 138.800 M50.967 145.342 C 50.852 145.640,50.815 147.035,50.885 148.442 L 51.011 151.000 51.205 147.899 C 51.400 144.796,51.356 144.327,50.967 145.342 M368.509 174.400 C 368.509 175.390,368.587 175.795,368.682 175.300 C 368.778 174.805,368.778 173.995,368.682 173.500 C 368.587 173.005,368.509 173.410,368.509 174.400 M192.196 263.200 C 192.196 310.610,192.243 330.005,192.300 306.300 C 192.357 282.595,192.357 243.805,192.300 220.100 C 192.243 196.395,192.196 215.790,192.196 263.200 M91.105 192.283 C 91.602 192.379,92.322 192.375,92.705 192.275 C 93.087 192.175,92.680 192.096,91.800 192.101 C 90.920 192.105,90.607 192.187,91.105 192.283 M145.500 192.282 C 145.995 192.378,146.805 192.378,147.300 192.282 C 147.795 192.187,147.390 192.109,146.400 192.109 C 145.410 192.109,145.005 192.187,145.500 192.282 M106.747 194.908 C 106.917 195.077,111.183 195.167,116.228 195.107 L 125.400 194.999 115.919 194.799 C 110.705 194.690,106.577 194.738,106.747 194.908 M306.350 281.306 C 305.408 282.024,304.289 283.239,303.863 284.006 L 303.088 285.400 304.411 283.854 C 305.139 283.003,306.451 281.788,307.327 281.154 C 308.203 280.519,308.727 280.000,308.491 280.000 C 308.255 280.000,307.292 280.588,306.350 281.306 M296.378 291.500 L 295.000 293.000 296.500 291.622 C 297.896 290.338,298.184 290.000,297.878 290.000 C 297.812 290.000,297.137 290.675,296.378 291.500 " stroke="none" fill="#b0141c" fill-rule="evenodd"></path><path id="path4" d="M267.404 83.099 C 265.207 83.172,263.280 83.359,263.123 83.516 C 262.965 83.672,264.673 83.743,266.918 83.674 C 269.163 83.605,271.171 83.380,271.380 83.174 C 271.589 82.968,271.679 82.838,271.580 82.884 C 271.481 82.930,269.602 83.027,267.404 83.099 M272.754 83.316 C 272.929 83.490,274.766 83.578,276.836 83.513 L 280.600 83.395 276.518 83.197 C 274.273 83.089,272.579 83.142,272.754 83.316 M286.366 84.926 C 286.547 85.107,287.393 85.193,288.247 85.119 L 289.800 84.983 287.919 84.790 C 286.884 84.684,286.185 84.745,286.366 84.926 M192.101 86.600 C 192.105 87.480,192.187 87.793,192.283 87.295 C 192.379 86.798,192.375 86.078,192.275 85.695 C 192.175 85.313,192.096 85.720,192.101 86.600 M157.233 88.944 C 157.325 89.023,157.940 89.208,158.600 89.356 C 159.476 89.552,159.638 89.515,159.200 89.218 C 158.660 88.853,156.832 88.598,157.233 88.944 M349.800 96.400 C 350.659 97.280,351.452 98.000,351.562 98.000 C 351.672 98.000,351.059 97.280,350.200 96.400 C 349.341 95.520,348.548 94.800,348.438 94.800 C 348.328 94.800,348.941 95.520,349.800 96.400 M228.800 109.880 C 228.690 117.185,228.738 123.023,228.906 122.855 C 229.074 122.686,229.164 116.710,229.105 109.574 L 228.999 96.600 228.800 109.880 M319.669 101.472 C 320.401 102.062,321.565 103.068,322.255 103.707 C 323.216 104.598,323.582 104.744,323.819 104.335 C 323.989 104.041,323.986 103.928,323.812 104.085 C 323.638 104.243,322.493 103.478,321.268 102.385 C 320.043 101.293,318.882 100.400,318.689 100.400 C 318.496 100.400,318.937 100.883,319.669 101.472 M355.782 105.900 C 356.098 107.193,357.699 109.623,358.923 110.666 C 359.397 111.070,359.140 110.590,358.353 109.600 C 357.565 108.610,356.700 107.125,356.429 106.300 C 355.861 104.566,355.384 104.271,355.782 105.900 M228.940 127.200 C 228.940 129.070,229.009 129.835,229.093 128.900 C 229.177 127.965,229.177 126.435,229.093 125.500 C 229.009 124.565,228.940 125.330,228.940 127.200 M365.552 126.487 C 365.737 127.598,365.793 127.655,365.919 126.854 C 366.001 126.333,365.903 125.743,365.701 125.541 C 365.479 125.319,365.421 125.693,365.552 126.487 M228.797 136.918 L 228.995 141.000 229.113 137.236 C 229.178 135.166,229.090 133.329,228.916 133.154 C 228.742 132.979,228.689 134.673,228.797 136.918 M52.352 137.913 C 52.221 138.707,52.279 139.081,52.501 138.859 C 52.703 138.657,52.801 138.067,52.719 137.546 C 52.593 136.745,52.537 136.802,52.352 137.913 M228.899 229.476 C 228.806 309.707,228.878 316.292,229.834 314.745 C 230.015 314.453,229.950 314.384,229.663 314.561 C 229.316 314.776,229.177 293.795,229.100 229.523 L 228.998 144.200 228.899 229.476 M369.990 158.081 C 369.884 159.116,369.945 159.815,370.126 159.634 C 370.307 159.453,370.393 158.607,370.319 157.753 L 370.183 156.200 369.990 158.081 M367.168 181.700 C 367.049 182.560,367.110 183.050,367.312 182.848 C 367.505 182.655,367.598 181.981,367.519 181.349 C 367.387 180.291,367.359 180.319,367.168 181.700 M158.600 189.091 C 156.884 189.335,156.520 189.872,158.204 189.675 C 158.976 189.585,159.706 189.351,159.827 189.156 C 159.948 188.960,159.992 188.827,159.924 188.860 C 159.856 188.893,159.260 188.997,158.600 189.091 M84.760 190.920 C 84.946 191.106,85.706 191.196,86.449 191.119 C 87.767 190.983,87.758 190.975,86.110 190.780 C 85.181 190.671,84.573 190.733,84.760 190.920 M152.000 190.800 L 150.600 191.095 151.876 191.147 C 152.578 191.176,153.264 191.020,153.400 190.800 C 153.536 190.580,153.592 190.424,153.524 190.453 C 153.456 190.482,152.770 190.638,152.000 190.800 M99.141 193.701 C 99.343 193.903,99.933 194.001,100.454 193.919 C 101.255 193.793,101.198 193.737,100.087 193.552 C 99.293 193.421,98.919 193.479,99.141 193.701 M135.400 193.600 L 133.000 193.866 135.276 193.933 C 136.528 193.970,137.664 193.820,137.800 193.600 C 137.936 193.380,137.992 193.230,137.924 193.267 C 137.856 193.304,136.720 193.454,135.400 193.600 M352.446 224.620 C 352.421 225.071,352.221 225.657,352.001 225.921 C 351.782 226.186,351.890 226.153,352.240 225.849 C 352.590 225.544,352.790 224.958,352.685 224.547 C 352.512 223.874,352.488 223.881,352.446 224.620 M102.398 263.718 L 102.596 268.200 102.712 264.035 C 102.777 261.744,102.688 259.727,102.515 259.553 C 102.342 259.379,102.289 261.253,102.398 263.718 M84.976 274.178 C 85.404 274.520,86.034 274.786,86.376 274.768 C 86.915 274.741,86.918 274.707,86.400 274.514 C 86.070 274.392,85.440 274.126,85.000 273.924 C 84.213 273.562,84.212 273.566,84.976 274.178 M307.000 280.351 C 306.340 280.762,305.302 281.630,304.693 282.279 C 303.577 283.468,301.782 286.582,302.451 286.168 C 302.649 286.046,303.161 285.261,303.588 284.423 C 304.451 282.731,306.372 280.954,308.200 280.156 C 308.860 279.867,309.130 279.625,308.800 279.617 C 308.470 279.609,307.660 279.940,307.000 280.351 M295.974 291.500 C 294.434 292.985,292.896 294.650,292.556 295.200 C 292.216 295.750,292.782 295.300,293.813 294.200 C 294.845 293.100,296.519 291.435,297.533 290.500 C 298.548 289.565,299.242 288.800,299.076 288.800 C 298.910 288.800,297.514 290.015,295.974 291.500 M215.708 351.245 C 214.777 351.673,213.808 352.423,213.554 352.912 L 213.091 353.800 214.046 352.946 C 214.571 352.477,215.720 351.719,216.600 351.264 C 218.616 350.220,217.967 350.207,215.708 351.245 M184.662 352.500 C 184.764 352.665,185.726 352.800,186.800 352.800 C 187.874 352.800,188.836 352.665,188.938 352.500 C 189.040 352.335,188.078 352.200,186.800 352.200 C 185.522 352.200,184.560 352.335,184.662 352.500 " stroke="none" fill="#c71222" fill-rule="evenodd"></path></g></svg>