<svg id="svg" xmlns="http://www.w3.org/2000/svg" xmlns:xlink="http://www.w3.org/1999/xlink" width="400" height="400" viewBox="0, 0, 400,400"><g id="svgg"><path id="path0" d="M258.453 65.684 C 242.289 68.043,223.691 76.262,212.233 86.110 L 210.456 87.637 210.429 107.692 C 210.414 118.723,210.411 177.770,210.424 238.909 L 210.446 350.070 211.954 349.017 C 212.783 348.437,216.799 345.788,220.879 343.129 C 299.895 291.636,345.961 241.182,360.089 190.659 C 373.685 142.039,360.113 103.341,320.684 78.309 C 303.440 67.361,279.811 62.567,258.453 65.684 M156.593 70.743 C 150.085 73.994,151.817 80.288,160.405 84.598 C 166.162 87.487,172.506 91.384,173.150 92.427 C 173.694 93.307,173.726 162.761,173.183 163.599 C 172.412 164.787,159.369 169.773,151.923 171.726 C 116.815 180.932,81.623 175.480,49.938 155.928 L 46.154 153.593 46.157 150.286 C 46.174 132.798,55.421 111.758,67.972 100.650 C 74.511 94.863,74.822 88.474,68.661 86.469 C 62.480 84.456,48.387 98.501,41.438 113.599 C 40.707 115.185,39.500 117.810,38.756 119.431 C 20.989 158.093,39.557 219.004,83.199 265.229 C 89.767 272.185,94.691 272.677,97.360 266.644 C 99.004 262.927,98.473 261.824,90.852 253.140 C 67.894 226.980,55.334 204.490,48.922 178.061 C 48.011 174.306,47.358 171.141,47.470 171.028 C 47.583 170.915,51.227 172.555,55.568 174.671 C 83.806 188.437,112.061 192.873,141.484 188.161 C 150.667 186.690,166.323 182.301,170.983 179.891 C 171.803 179.468,172.732 179.121,173.050 179.121 C 173.449 179.121,173.626 201.044,173.626 250.549 C 173.626 303.357,173.464 321.978,173.004 321.978 C 172.662 321.978,170.004 320.285,167.098 318.216 C 159.220 312.607,158.328 312.312,154.592 314.085 C 150.672 315.945,149.728 321.899,152.885 324.861 C 154.665 326.532,186.288 347.802,186.992 347.802 C 187.196 347.802,187.363 288.830,187.363 216.753 L 187.363 85.703 181.456 81.307 C 170.154 72.895,160.498 68.792,156.593 70.743 M287.912 79.911 C 315.156 85.538,340.194 107.077,347.679 131.325 C 359.135 168.437,344.918 211.133,306.337 255.487 C 294.541 269.048,270.786 290.521,252.473 304.178 C 248.242 307.333,243.791 310.658,242.582 311.567 C 241.374 312.476,239.148 314.080,237.637 315.132 C 236.126 316.183,232.573 318.660,229.742 320.635 C 226.910 322.611,224.505 324.138,224.396 324.030 C 224.287 323.921,224.160 272.198,224.114 209.089 L 224.029 94.346 225.339 93.349 C 233.680 87.002,249.413 80.868,262.363 78.915 C 265.909 78.380,283.895 79.081,287.912 79.911 " stroke="none" fill="#000000" fill-rule="evenodd"></path></g></svg>